<?xml version="1.0" encoding="UTF-8"?>
<!DOCTYPE svg PUBLIC "-//W3C//DTD SVG 1.1//EN" "http://www.w3.org/Graphics/SVG/1.1/DTD/svg11.dtd">
<svg xmlns="http://www.w3.org/2000/svg" version="1.1" width="340px" height="123px" style="shape-rendering:geometricPrecision; text-rendering:geometricPrecision; image-rendering:optimizeQuality; fill-rule:evenodd; clip-rule:evenodd" xmlns:xlink="http://www.w3.org/1999/xlink">
<g><path style="opacity:0.971" fill="#4573c4" d="M 50.5,-0.5 C 129.833,-0.5 209.167,-0.5 288.5,-0.5C 315.833,6.16667 332.833,23.1667 339.5,50.5C 339.5,57.5 339.5,64.5 339.5,71.5C 332.833,98.8333 315.833,115.833 288.5,122.5C 209.167,122.5 129.833,122.5 50.5,122.5C 23.1667,115.833 6.16667,98.8333 -0.5,71.5C -0.5,64.5 -0.5,57.5 -0.5,50.5C 6.16667,23.1667 23.1667,6.16667 50.5,-0.5 Z"/></g>
<g><path style="opacity:1" fill="#fdfefe" d="M 51.5,4.5 C 131.527,4.0201 211.527,4.5201 291.5,6C 314.28,13.1137 328.447,28.2804 334,51.5C 336.48,84.0535 322.314,105.553 291.5,116C 211.526,117.647 131.526,117.98 51.5,117C 21.6829,109.354 6.01621,90.1869 4.5,59.5C 7.60787,30.3948 23.2745,12.0615 51.5,4.5 Z"/></g>
<g><path style="opacity:1" fill="#4e78c6" d="M 77.5,24.5 C 99.5386,23.0889 114.039,32.7555 121,53.5C 123.11,75.7056 113.61,90.2056 92.5,97C 71.1919,99.437 57.0252,90.6037 50,70.5C 46.1044,47.2832 55.2711,31.9499 77.5,24.5 Z"/></g>
<g><path style="opacity:1" fill="#fafbfd" d="M 78.5,29.5 C 100.836,28.4844 113.503,38.9844 116.5,61C 116.298,68.1539 113.965,74.4872 109.5,80C 103.189,76.859 96.5228,74.1923 89.5,72C 96.9992,68.5006 99.8325,62.6673 98,54.5C 93.6583,47.077 87.4917,44.9104 79.5,48C 73.5283,53.075 72.0283,59.2417 75,66.5C 76.9384,69.1059 79.4384,70.9392 82.5,72C 74.5451,73.4217 67.7117,76.9217 62,82.5C 50.0134,66.6543 50.8467,51.4876 64.5,37C 68.815,33.6782 73.4816,31.1782 78.5,29.5 Z"/></g>
<g><path style="opacity:1" fill="#547dc8" d="M 268.5,40.5 C 270.167,40.5 271.833,40.5 273.5,40.5C 273.5,50.8333 273.5,61.1667 273.5,71.5C 271.5,71.5 269.5,71.5 267.5,71.5C 267.192,61.0846 267.525,50.7513 268.5,40.5 Z"/></g>
<g><path style="opacity:1" fill="#8ba7da" d="M 182.5,43.5 C 172.833,43.5 163.167,43.5 153.5,43.5C 153.5,44.8333 153.5,46.1667 153.5,47.5C 152.549,46.0813 152.216,44.4147 152.5,42.5C 162.681,42.1726 172.681,42.506 182.5,43.5 Z"/></g>
<g><path style="opacity:1" fill="#4d78c6" d="M 245.5,41.5 C 253.4,40.9053 258.4,44.4053 260.5,52C 259.015,61.0864 253.681,64.753 244.5,63C 238.397,59.9596 236.231,55.1263 238,48.5C 239.767,45.228 242.267,42.8947 245.5,41.5 Z"/></g>
<g><path style="opacity:1" fill="#4573c4" d="M 182.5,43.5 C 182.5,48.1667 182.5,52.8333 182.5,57.5C 174.5,57.5 166.5,57.5 158.5,57.5C 158.5,59.1667 158.5,60.8333 158.5,62.5C 166.65,63.4927 174.983,63.8261 183.5,63.5C 183.5,64.5 183.5,65.5 183.5,66.5C 179.298,66.1832 175.298,66.5166 171.5,67.5C 170.189,69.5598 170.189,71.7265 171.5,74C 177.157,74.4994 182.824,74.6661 188.5,74.5C 188.5,75.8333 188.5,77.1667 188.5,78.5C 174.833,78.5 161.167,78.5 147.5,78.5C 147.5,77.1667 147.5,75.8333 147.5,74.5C 153.5,74.5 159.5,74.5 165.5,74.5C 165.5,72.1667 165.5,69.8333 165.5,67.5C 161.702,66.5166 157.702,66.1832 153.5,66.5C 153.5,62.1667 153.5,57.8333 153.5,53.5C 161.684,53.8257 169.684,53.4924 177.5,52.5C 177.5,50.8333 177.5,49.1667 177.5,47.5C 169.5,47.5 161.5,47.5 153.5,47.5C 153.5,46.1667 153.5,44.8333 153.5,43.5C 163.167,43.5 172.833,43.5 182.5,43.5 Z"/></g>
<g><path style="opacity:1" fill="#4c77c6" d="M 196.5,44.5 C 207.172,44.3335 217.839,44.5002 228.5,45C 227.102,53.0759 226.102,61.2425 225.5,69.5C 223.5,69.5 221.5,69.5 219.5,69.5C 220.26,64.1798 220.927,58.8465 221.5,53.5C 222.451,52.0813 222.784,50.4147 222.5,48.5C 213.833,48.5 205.167,48.5 196.5,48.5C 196.5,47.1667 196.5,45.8333 196.5,44.5 Z"/></g>
<g><path style="opacity:1" fill="#f7f9fc" d="M 245.5,46.5 C 254.369,46.5166 256.703,50.35 252.5,58C 246.984,59.9246 243.651,58.0913 242.5,52.5C 242.984,50.1992 243.984,48.1992 245.5,46.5 Z"/></g>
<g><path style="opacity:1" fill="#6e92d1" d="M 196.5,44.5 C 196.5,45.8333 196.5,47.1667 196.5,48.5C 205.167,48.5 213.833,48.5 222.5,48.5C 222.784,50.4147 222.451,52.0813 221.5,53.5C 221.5,52.1667 221.5,50.8333 221.5,49.5C 212.833,49.5 204.167,49.5 195.5,49.5C 195.216,47.5853 195.549,45.9187 196.5,44.5 Z"/></g>
<g><path style="opacity:1" fill="#f8fafd" d="M 81.5,49.5 C 92.9328,48.3963 97.4328,53.3963 95,64.5C 89.5915,70.5739 83.9248,70.9072 78,65.5C 76.4961,61.9613 76.1628,58.2946 77,54.5C 78.1932,52.5029 79.6932,50.8362 81.5,49.5 Z"/></g>
<g><path style="opacity:1" fill="#6f92d1" d="M 177.5,52.5 C 169.684,53.4924 161.684,53.8257 153.5,53.5C 153.5,57.8333 153.5,62.1667 153.5,66.5C 157.702,66.1832 161.702,66.5166 165.5,67.5C 161.167,67.5 156.833,67.5 152.5,67.5C 152.5,62.5 152.5,57.5 152.5,52.5C 160.833,52.5 169.167,52.5 177.5,52.5 Z"/></g>
<g><path style="opacity:1" fill="#6c90d0" d="M 158.5,62.5 C 167.167,62.5 175.833,62.5 184.5,62.5C 184.5,64.1667 184.5,65.8333 184.5,67.5C 180.167,67.5 175.833,67.5 171.5,67.5C 175.298,66.5166 179.298,66.1832 183.5,66.5C 183.5,65.5 183.5,64.5 183.5,63.5C 174.983,63.8261 166.65,63.4927 158.5,62.5 Z"/></g>
<g><path style="opacity:1" fill="#6a8fd0" d="M 249.5,68.5 C 247.833,68.5 246.167,68.5 244.5,68.5C 244.5,72.8333 244.5,77.1667 244.5,81.5C 254.015,81.1731 263.348,81.5064 272.5,82.5C 262.833,82.5 253.167,82.5 243.5,82.5C 243.5,77.5 243.5,72.5 243.5,67.5C 245.735,67.2053 247.735,67.5386 249.5,68.5 Z"/></g>
<g><path style="opacity:1" fill="#4472c4" d="M 249.5,68.5 C 249.5,68.8333 249.5,69.1667 249.5,69.5C 248.523,72.2869 248.19,75.2869 248.5,78.5C 256.833,78.5 265.167,78.5 273.5,78.5C 273.5,79.8333 273.5,81.1667 273.5,82.5C 273.167,82.5 272.833,82.5 272.5,82.5C 263.348,81.5064 254.015,81.1731 244.5,81.5C 244.5,77.1667 244.5,72.8333 244.5,68.5C 246.167,68.5 247.833,68.5 249.5,68.5 Z"/></g>
<g><path style="opacity:1" fill="#4472c4" d="M 191.5,73.5 C 205.167,73.5 218.833,73.5 232.5,73.5C 232.5,74.8333 232.5,76.1667 232.5,77.5C 218.833,77.5 205.167,77.5 191.5,77.5C 191.5,76.1667 191.5,74.8333 191.5,73.5 Z"/></g>
<g><path style="opacity:1" fill="#b1c5e6" d="M 188.5,74.5 C 189.451,75.9187 189.784,77.5853 189.5,79.5C 175.323,79.8291 161.323,79.4958 147.5,78.5C 161.167,78.5 174.833,78.5 188.5,78.5C 188.5,77.1667 188.5,75.8333 188.5,74.5 Z"/></g>
<g><path style="opacity:1" fill="#f9fafd" d="M 80.5,75.5 C 88.6432,74.6491 96.3099,76.1491 103.5,80C 104.687,81.0195 105.687,82.1861 106.5,83.5C 94.9943,93.6589 82.3276,95.1589 68.5,88C 67.3147,86.647 65.9814,85.4803 64.5,84.5C 65.3128,83.1861 66.3128,82.0195 67.5,81C 71.7415,78.6512 76.0748,76.8179 80.5,75.5 Z"/></g>
<g><path style="opacity:1" fill="#7193d2" d="M 249.5,69.5 C 249.5,72.1667 249.5,74.8333 249.5,77.5C 257.833,77.5 266.167,77.5 274.5,77.5C 274.784,79.4147 274.451,81.0813 273.5,82.5C 273.5,81.1667 273.5,79.8333 273.5,78.5C 265.167,78.5 256.833,78.5 248.5,78.5C 248.19,75.2869 248.523,72.2869 249.5,69.5 Z"/></g>
</svg>
