<svg width="65" height="56" viewBox="0 0 65 56" fill="none" xmlns="http://www.w3.org/2000/svg">
<rect x="0.15" y="12.15" width="52.7" height="31.7" rx="15.85" fill="#303030"/>
<path d="M14.5703 23.0469V33H13.251V23.0469H14.5703ZM19.875 25.6035V26.5742H15.876V25.6035H19.875ZM17.2295 23.8057H18.4941V31.168C18.4941 31.4186 18.5329 31.6077 18.6104 31.7354C18.6878 31.863 18.7881 31.9473 18.9111 31.9883C19.0342 32.0293 19.1663 32.0498 19.3076 32.0498C19.4124 32.0498 19.5218 32.0407 19.6357 32.0225C19.7542 31.9997 19.8431 31.9814 19.9023 31.9678L19.9092 33C19.8089 33.0319 19.6768 33.0615 19.5127 33.0889C19.3532 33.1208 19.1595 33.1367 18.9316 33.1367C18.6217 33.1367 18.3369 33.0752 18.0771 32.9521C17.8174 32.8291 17.61 32.624 17.4551 32.3369C17.3047 32.0452 17.2295 31.6533 17.2295 31.1611V23.8057ZM24.4277 33.1367C23.9128 33.1367 23.4456 33.0501 23.0264 32.877C22.6117 32.6992 22.2539 32.4508 21.9531 32.1318C21.6569 31.8128 21.429 31.4346 21.2695 30.9971C21.11 30.5596 21.0303 30.0811 21.0303 29.5615V29.2744C21.0303 28.6729 21.1191 28.1374 21.2969 27.668C21.4746 27.194 21.7161 26.793 22.0215 26.4648C22.3268 26.1367 22.6732 25.8883 23.0605 25.7197C23.4479 25.5511 23.849 25.4668 24.2637 25.4668C24.7923 25.4668 25.248 25.5579 25.6309 25.7402C26.0182 25.9225 26.335 26.1777 26.5811 26.5059C26.8271 26.8294 27.0094 27.2122 27.1279 27.6543C27.2464 28.0918 27.3057 28.5703 27.3057 29.0898V29.6572H21.7822V28.625H26.041V28.5293C26.0228 28.2012 25.9544 27.8822 25.8359 27.5723C25.722 27.2624 25.5397 27.0072 25.2891 26.8066C25.0384 26.6061 24.6966 26.5059 24.2637 26.5059C23.9766 26.5059 23.7122 26.5674 23.4707 26.6904C23.2292 26.8089 23.0218 26.9867 22.8486 27.2236C22.6755 27.4606 22.541 27.75 22.4453 28.0918C22.3496 28.4336 22.3018 28.8278 22.3018 29.2744V29.5615C22.3018 29.9124 22.3496 30.2428 22.4453 30.5527C22.5456 30.8581 22.6891 31.127 22.876 31.3594C23.0674 31.5918 23.2975 31.7741 23.5664 31.9062C23.8398 32.0384 24.1497 32.1045 24.4961 32.1045C24.9427 32.1045 25.321 32.0133 25.6309 31.8311C25.9408 31.6488 26.2119 31.4049 26.4443 31.0996L27.21 31.708C27.0505 31.9495 26.8477 32.1797 26.6016 32.3984C26.3555 32.6172 26.0524 32.7949 25.6924 32.9316C25.3369 33.0684 24.9154 33.1367 24.4277 33.1367ZM30.04 27.0732V33H28.7686V25.6035H29.9717L30.04 27.0732ZM29.7803 29.0215L29.1924 29.001C29.1969 28.4951 29.263 28.028 29.3906 27.5996C29.5182 27.1667 29.7074 26.7907 29.958 26.4717C30.2087 26.1527 30.5208 25.9066 30.8945 25.7334C31.2682 25.5557 31.7012 25.4668 32.1934 25.4668C32.5397 25.4668 32.8587 25.5169 33.1504 25.6172C33.4421 25.7129 33.695 25.8656 33.9092 26.0752C34.1234 26.2848 34.2897 26.5537 34.4082 26.8818C34.5267 27.21 34.5859 27.6064 34.5859 28.0713V33H33.3213V28.1328C33.3213 27.7454 33.2552 27.4355 33.123 27.2031C32.9954 26.9707 32.8132 26.8021 32.5762 26.6973C32.3392 26.5879 32.0612 26.5332 31.7422 26.5332C31.3685 26.5332 31.0563 26.5993 30.8057 26.7314C30.555 26.8636 30.3545 27.0459 30.2041 27.2783C30.0537 27.5107 29.9443 27.7773 29.876 28.0781C29.8122 28.3743 29.7803 28.6888 29.7803 29.0215ZM34.5723 28.3242L33.7246 28.584C33.7292 28.1784 33.7952 27.7887 33.9229 27.415C34.055 27.0413 34.2441 26.7087 34.4902 26.417C34.7409 26.1253 35.0485 25.8952 35.4131 25.7266C35.7777 25.5534 36.1947 25.4668 36.6641 25.4668C37.0605 25.4668 37.4115 25.5192 37.7168 25.624C38.0267 25.7288 38.2865 25.8906 38.4961 26.1094C38.7103 26.3236 38.8721 26.5993 38.9814 26.9365C39.0908 27.2738 39.1455 27.6748 39.1455 28.1396V33H37.874V28.126C37.874 27.7113 37.8079 27.39 37.6758 27.1621C37.5482 26.9297 37.3659 26.7679 37.1289 26.6768C36.8965 26.5811 36.6185 26.5332 36.2949 26.5332C36.0169 26.5332 35.7708 26.5811 35.5566 26.6768C35.3424 26.7725 35.1624 26.9046 35.0166 27.0732C34.8708 27.2373 34.7591 27.4264 34.6816 27.6406C34.6087 27.8548 34.5723 28.0827 34.5723 28.3242Z" fill="white"/>
<rect x="0.15" y="12.15" width="52.7" height="31.7" rx="15.85" stroke="#AAAAAA" stroke-width="0.3"/>
</svg>
